<svg xmlns="http://www.w3.org/2000/svg" xmlns:xlink="http://www.w3.org/1999/xlink" width="200" zoomAndPan="magnify" viewBox="0 0 150 74.999997" height="100" preserveAspectRatio="xMidYMid meet" version="1.0"><defs><g/><clipPath id="id1"><path d="M 12.601562 42.851562 L 30.167969 42.851562 L 30.167969 72.460938 L 12.601562 72.460938 Z M 12.601562 42.851562 " clip-rule="nonzero"/></clipPath><clipPath id="id2"><path d="M 30.113281 42.851562 L 45.667969 42.851562 L 45.667969 72.460938 L 30.113281 72.460938 Z M 30.113281 42.851562 " clip-rule="nonzero"/></clipPath><clipPath id="id3"><path d="M 45.582031 42.851562 L 65.15625 42.851562 L 65.15625 72.460938 L 45.582031 72.460938 Z M 45.582031 42.851562 " clip-rule="nonzero"/></clipPath><clipPath id="id4"><path d="M 65.835938 42.851562 L 77.878906 42.851562 L 77.878906 72.460938 L 65.835938 72.460938 Z M 65.835938 42.851562 " clip-rule="nonzero"/></clipPath><clipPath id="id5"><path d="M 76.925781 42.851562 L 99.507812 42.851562 L 99.507812 72.460938 L 76.925781 72.460938 Z M 76.925781 42.851562 " clip-rule="nonzero"/></clipPath><clipPath id="id6"><path d="M 93.042969 10 L 107 10 L 107 31 L 93.042969 31 Z M 93.042969 10 " clip-rule="nonzero"/></clipPath><clipPath id="id7"><path d="M 103 4.496094 L 125 4.496094 L 125 17 L 103 17 Z M 103 4.496094 " clip-rule="nonzero"/></clipPath><clipPath id="id8"><path d="M 108 19.234375 L 113 19.234375 L 113 23 L 108 23 Z M 108 19.234375 " clip-rule="nonzero"/></clipPath><clipPath id="id9"><path d="M 117 21 L 121.109375 21 L 121.109375 25 L 117 25 Z M 117 21 " clip-rule="nonzero"/></clipPath><clipPath id="id10"><path d="M 107.558594 23 L 111 23 L 111 27 L 107.558594 27 Z M 107.558594 23 " clip-rule="nonzero"/></clipPath><clipPath id="id11"><path d="M 115 19.234375 L 119 19.234375 L 119 22 L 115 22 Z M 115 19.234375 " clip-rule="nonzero"/></clipPath><clipPath id="id12"><path d="M 112 31 L 117 31 L 117 32.28125 L 112 32.28125 Z M 112 31 " clip-rule="nonzero"/></clipPath></defs><g clip-path="url(#id1)"><path fill="#ff1616" d="M 12.601562 42.851562 L 30.164062 42.851562 L 30.164062 72.460938 L 12.601562 72.460938 L 12.601562 42.851562 " fill-opacity="1" fill-rule="nonzero"/></g><g clip-path="url(#id2)"><path fill="#ffd600" d="M 30.113281 42.851562 L 45.667969 42.851562 L 45.667969 72.460938 L 30.113281 72.460938 L 30.113281 42.851562 " fill-opacity="1" fill-rule="nonzero"/></g><g clip-path="url(#id3)"><path fill="#ffffff" d="M 45.582031 42.851562 L 65.152344 42.851562 L 65.152344 72.460938 L 45.582031 72.460938 L 45.582031 42.851562 " fill-opacity="1" fill-rule="nonzero"/></g><g clip-path="url(#id4)"><path fill="#008037" d="M 65.835938 42.859375 L 77.878906 42.859375 L 77.878906 72.453125 L 65.835938 72.453125 L 65.835938 42.859375 " fill-opacity="1" fill-rule="nonzero"/></g><g clip-path="url(#id5)"><path fill="#000000" d="M 76.925781 42.851562 L 99.507812 42.851562 L 99.507812 72.457031 L 76.925781 72.457031 L 76.925781 42.851562 " fill-opacity="1" fill-rule="nonzero"/></g><g fill="#ffffff" fill-opacity="1"><g transform="translate(15.160187, 63.848035)"><g><path d="M 15.21875 -13.15625 L 15.21875 -10.484375 L 13.671875 -10.484375 L 13.671875 0 L 10.46875 0 L 10.46875 -4.296875 L 8.984375 -4.296875 C 8.921875 -3.304688 8.550781 -2.519531 7.875 -1.9375 C 7.195312 -1.363281 6.320312 -1.078125 5.25 -1.078125 C 4.394531 -1.078125 3.644531 -1.234375 3 -1.546875 C 2.363281 -1.867188 1.867188 -2.316406 1.515625 -2.890625 C 1.160156 -3.472656 0.984375 -4.140625 0.984375 -4.890625 L 3.984375 -4.890625 C 3.984375 -4.597656 4.078125 -4.347656 4.265625 -4.140625 C 4.453125 -3.929688 4.710938 -3.828125 5.046875 -3.828125 C 5.367188 -3.828125 5.617188 -3.921875 5.796875 -4.109375 C 5.972656 -4.304688 6.0625 -4.566406 6.0625 -4.890625 C 6.0625 -5.222656 5.941406 -5.5 5.703125 -5.71875 C 5.472656 -5.9375 5.128906 -6.046875 4.671875 -6.046875 L 3.84375 -6.046875 L 3.84375 -8.609375 L 4.671875 -8.609375 C 5.054688 -8.609375 5.363281 -8.695312 5.59375 -8.875 C 5.832031 -9.0625 5.953125 -9.3125 5.953125 -9.625 C 5.953125 -9.914062 5.863281 -10.148438 5.6875 -10.328125 C 5.507812 -10.515625 5.285156 -10.609375 5.015625 -10.609375 C 4.734375 -10.609375 4.5 -10.519531 4.3125 -10.34375 C 4.125 -10.164062 4.03125 -9.941406 4.03125 -9.671875 L 1.109375 -9.671875 C 1.109375 -10.378906 1.265625 -11.007812 1.578125 -11.5625 C 1.898438 -12.113281 2.359375 -12.539062 2.953125 -12.84375 C 3.546875 -13.15625 4.234375 -13.3125 5.015625 -13.3125 C 6.171875 -13.3125 7.085938 -13.015625 7.765625 -12.421875 C 8.453125 -11.835938 8.796875 -11.046875 8.796875 -10.046875 C 8.796875 -9.421875 8.640625 -8.878906 8.328125 -8.421875 C 8.023438 -7.972656 7.59375 -7.644531 7.03125 -7.4375 L 7.03125 -7.359375 C 7.332031 -7.273438 7.625 -7.132812 7.90625 -6.9375 L 10.46875 -6.9375 L 10.46875 -13.15625 Z M 15.21875 -13.15625 "/></g></g></g><g fill="#ffffff" fill-opacity="1"><g transform="translate(30.147885, 63.848035)"><g><path d="M 15.0625 -10.484375 L 13.515625 -10.484375 L 13.515625 0 L 10.296875 0 L 10.296875 -6.109375 L 8.359375 -6.109375 C 8.609375 -5.617188 8.734375 -5.054688 8.734375 -4.421875 C 8.734375 -3.679688 8.5625 -3.050781 8.21875 -2.53125 C 7.875 -2.007812 7.410156 -1.613281 6.828125 -1.34375 C 6.242188 -1.082031 5.601562 -0.953125 4.90625 -0.953125 C 4.1875 -0.953125 3.507812 -1.109375 2.875 -1.421875 C 2.25 -1.734375 1.742188 -2.179688 1.359375 -2.765625 C 0.984375 -3.359375 0.796875 -4.0625 0.796875 -4.875 C 0.796875 -5.726562 0.992188 -6.445312 1.390625 -7.03125 C 1.785156 -7.613281 2.316406 -8.050781 2.984375 -8.34375 C 3.648438 -8.632812 4.382812 -8.78125 5.1875 -8.78125 L 10.296875 -8.78125 L 10.296875 -10.484375 L -0.25 -10.484375 L -0.25 -13.15625 L 15.0625 -13.15625 Z M 4.96875 -3.65625 C 5.332031 -3.65625 5.628906 -3.769531 5.859375 -4 C 6.085938 -4.226562 6.203125 -4.523438 6.203125 -4.890625 C 6.203125 -5.242188 6.085938 -5.535156 5.859375 -5.765625 C 5.628906 -5.992188 5.332031 -6.109375 4.96875 -6.109375 C 4.582031 -6.109375 4.269531 -5.992188 4.03125 -5.765625 C 3.800781 -5.535156 3.6875 -5.238281 3.6875 -4.875 C 3.6875 -4.519531 3.800781 -4.226562 4.03125 -4 C 4.269531 -3.769531 4.582031 -3.65625 4.96875 -3.65625 Z M 4.96875 -3.65625 "/></g></g></g><g fill="#ffffff" fill-opacity="1"><g transform="translate(44.957792, 63.848035)"><g><path d="M 0.203125 2.71875 C 0.203125 3.8125 -0.160156 4.675781 -0.890625 5.3125 C -1.617188 5.945312 -2.601562 6.265625 -3.84375 6.265625 C -4.6875 6.265625 -5.46875 6.117188 -6.1875 5.828125 C -6.90625 5.546875 -7.488281 5.085938 -7.9375 4.453125 C -8.382812 3.816406 -8.601562 3.003906 -8.59375 2.015625 L -5.765625 2.015625 C -5.773438 2.617188 -5.613281 3.0625 -5.28125 3.34375 C -4.945312 3.625 -4.488281 3.765625 -3.90625 3.765625 C -3.457031 3.765625 -3.109375 3.671875 -2.859375 3.484375 C -2.617188 3.304688 -2.5 3.046875 -2.5 2.703125 C -2.5 2.378906 -2.613281 2.117188 -2.84375 1.921875 C -3.070312 1.734375 -3.398438 1.640625 -3.828125 1.640625 L -4.515625 1.640625 L -4.515625 -0.859375 L -3.828125 -0.859375 C -2.503906 -0.859375 -1.5 -0.546875 -0.8125 0.078125 C -0.132812 0.710938 0.203125 1.59375 0.203125 2.71875 Z M 0.203125 2.71875 "/></g></g></g><g fill="#ff1616" fill-opacity="1"><g transform="translate(44.953806, 63.848035)"><g><path d="M 15.5625 -10.484375 L 14 -10.484375 L 14 0 L 10.78125 0 L 10.78125 -5.703125 L 8.796875 -5.703125 L 8.796875 -5.03125 C 8.796875 -3.726562 8.445312 -2.707031 7.75 -1.96875 C 7.0625 -1.238281 6.066406 -0.875 4.765625 -0.875 C 3.941406 -0.875 3.222656 -1.023438 2.609375 -1.328125 C 1.992188 -1.640625 1.515625 -2.078125 1.171875 -2.640625 C 0.835938 -3.203125 0.671875 -3.859375 0.671875 -4.609375 C 0.671875 -5.816406 1.0625 -6.738281 1.84375 -7.375 C 2.625 -8.007812 3.625 -8.328125 4.84375 -8.328125 L 5.796875 -8.328125 L 5.796875 -10.484375 L -0.25 -10.484375 L -0.25 -13.15625 L 15.5625 -13.15625 Z M 10.78125 -10.484375 L 8.796875 -10.484375 L 8.796875 -8.328125 L 10.78125 -8.328125 Z M 5.796875 -5.703125 L 4.9375 -5.703125 C 4.550781 -5.703125 4.238281 -5.609375 4 -5.421875 C 3.757812 -5.234375 3.640625 -4.96875 3.640625 -4.625 C 3.640625 -4.289062 3.738281 -4.03125 3.9375 -3.84375 C 4.132812 -3.664062 4.382812 -3.578125 4.6875 -3.578125 C 5.0625 -3.578125 5.335938 -3.691406 5.515625 -3.921875 C 5.703125 -4.148438 5.796875 -4.460938 5.796875 -4.859375 Z M 5.796875 -5.703125 "/></g></g></g><g fill="#ff1616" fill-opacity="1"><g transform="translate(60.261524, 63.848035)"><g><path d="M 6.0625 -13.15625 L 6.0625 -10.484375 L 4.515625 -10.484375 L 4.515625 0 L 1.3125 0 L 1.3125 -10.484375 L -0.25 -10.484375 L -0.25 -13.15625 L 1.4375 -13.15625 C 1.007812 -13.8125 0.660156 -14.28125 0.390625 -14.5625 C 0.128906 -14.851562 -0.144531 -15.050781 -0.4375 -15.15625 C -0.738281 -15.257812 -1.148438 -15.3125 -1.671875 -15.3125 L -2.65625 -15.3125 L -2.65625 -17.890625 L -1.703125 -17.890625 C -0.679688 -17.878906 0.125 -17.765625 0.71875 -17.546875 C 1.320312 -17.335938 1.898438 -16.90625 2.453125 -16.25 C 3.015625 -15.601562 3.679688 -14.570312 4.453125 -13.15625 Z M 6.0625 -13.15625 "/></g></g></g><g fill="#ffffff" fill-opacity="1"><g transform="translate(66.088486, 63.848035)"><g><path d="M 5.921875 -6.484375 C 5.378906 -6.484375 4.941406 -6.34375 4.609375 -6.0625 C 4.285156 -5.789062 4.125 -5.410156 4.125 -4.921875 C 4.125 -4.484375 4.25 -4.132812 4.5 -3.875 C 4.757812 -3.625 5.101562 -3.5 5.53125 -3.5 C 5.914062 -3.5 6.234375 -3.625 6.484375 -3.875 C 6.734375 -4.125 6.859375 -4.457031 6.859375 -4.875 L 9.828125 -4.875 L 9.828125 0.6875 L 6.6875 0.6875 L 6.6875 -1.703125 C 6.195312 -1.222656 5.503906 -0.984375 4.609375 -0.984375 C 3.941406 -0.984375 3.320312 -1.128906 2.75 -1.421875 C 2.175781 -1.710938 1.710938 -2.160156 1.359375 -2.765625 C 1.003906 -3.378906 0.828125 -4.128906 0.828125 -5.015625 C 0.828125 -5.898438 1.03125 -6.660156 1.4375 -7.296875 C 1.84375 -7.929688 2.40625 -8.414062 3.125 -8.75 C 3.84375 -9.082031 4.660156 -9.25 5.578125 -9.25 L 6.046875 -9.25 L 6.046875 -10.484375 L -0.25 -10.484375 L -0.25 -13.15625 L 11.125 -13.15625 L 11.109375 -10.484375 L 9.28125 -10.484375 L 9.28125 -6.484375 Z M 5.921875 -6.484375 "/></g></g></g><g fill="#ffffff" fill-opacity="1"><g transform="translate(76.969234, 63.848035)"><g><path d="M 15.0625 -10.484375 L 13.515625 -10.484375 L 13.515625 0 L 10.296875 0 L 10.296875 -6.109375 L 8.359375 -6.109375 C 8.609375 -5.617188 8.734375 -5.054688 8.734375 -4.421875 C 8.734375 -3.679688 8.5625 -3.050781 8.21875 -2.53125 C 7.875 -2.007812 7.410156 -1.613281 6.828125 -1.34375 C 6.242188 -1.082031 5.601562 -0.953125 4.90625 -0.953125 C 4.1875 -0.953125 3.507812 -1.109375 2.875 -1.421875 C 2.25 -1.734375 1.742188 -2.179688 1.359375 -2.765625 C 0.984375 -3.359375 0.796875 -4.0625 0.796875 -4.875 C 0.796875 -5.726562 0.992188 -6.445312 1.390625 -7.03125 C 1.785156 -7.613281 2.316406 -8.050781 2.984375 -8.34375 C 3.648438 -8.632812 4.382812 -8.78125 5.1875 -8.78125 L 10.296875 -8.78125 L 10.296875 -10.484375 L -0.25 -10.484375 L -0.25 -13.15625 L 15.0625 -13.15625 Z M 4.96875 -3.65625 C 5.332031 -3.65625 5.628906 -3.769531 5.859375 -4 C 6.085938 -4.226562 6.203125 -4.523438 6.203125 -4.890625 C 6.203125 -5.242188 6.085938 -5.535156 5.859375 -5.765625 C 5.628906 -5.992188 5.332031 -6.109375 4.96875 -6.109375 C 4.582031 -6.109375 4.269531 -5.992188 4.03125 -5.765625 C 3.800781 -5.535156 3.6875 -5.238281 3.6875 -4.875 C 3.6875 -4.519531 3.800781 -4.226562 4.03125 -4 C 4.269531 -3.769531 4.582031 -3.65625 4.96875 -3.65625 Z M 4.96875 -3.65625 "/></g></g></g><g fill="#ffffff" fill-opacity="1"><g transform="translate(91.779141, 63.848035)"><g><path d="M 1.3125 0 L 1.3125 -10.484375 L -0.25 -10.484375 L -0.25 -13.15625 L 6.0625 -13.15625 L 6.0625 -10.484375 L 4.515625 -10.484375 L 4.515625 0 Z M 1.3125 0 "/></g></g></g><g fill="#ffffff" fill-opacity="1"><g transform="translate(97.592875, 63.848035)"><g/></g></g><g fill="#004aad" fill-opacity="1"><g transform="translate(100.984258, 63.848035)"><g><path d="M 15.109375 -13.15625 L 15.109375 -10.484375 L 13.5625 -10.484375 L 13.5625 0 L 10.4375 0 L 10.4375 -2.875 L 7.21875 0.359375 L 3.53125 0.359375 L 10.359375 -6.109375 L 10.359375 -10.484375 L 8.40625 -10.484375 L 8.40625 -8.015625 C 8.40625 -6.816406 8.082031 -5.847656 7.4375 -5.109375 C 6.800781 -4.378906 5.835938 -4.015625 4.546875 -4.015625 C 3.285156 -4.015625 2.304688 -4.335938 1.609375 -4.984375 C 0.910156 -5.640625 0.5625 -6.597656 0.5625 -7.859375 C 0.5625 -8.117188 0.570312 -8.316406 0.59375 -8.453125 L 3.6875 -8.453125 L 3.6875 -7.875 C 3.6875 -7.125 3.945312 -6.75 4.46875 -6.75 C 4.957031 -6.75 5.203125 -7.125 5.203125 -7.875 L 5.203125 -10.484375 L -0.25 -10.484375 L -0.25 -13.15625 Z M 15.109375 -13.15625 "/></g></g></g><g fill="#004aad" fill-opacity="1"><g transform="translate(115.847502, 63.848035)"><g><path d="M 0.203125 2.71875 C 0.203125 3.8125 -0.160156 4.675781 -0.890625 5.3125 C -1.617188 5.945312 -2.601562 6.265625 -3.84375 6.265625 C -4.6875 6.265625 -5.46875 6.117188 -6.1875 5.828125 C -6.90625 5.546875 -7.488281 5.085938 -7.9375 4.453125 C -8.382812 3.816406 -8.601562 3.003906 -8.59375 2.015625 L -5.765625 2.015625 C -5.773438 2.617188 -5.613281 3.0625 -5.28125 3.34375 C -4.945312 3.625 -4.488281 3.765625 -3.90625 3.765625 C -3.457031 3.765625 -3.109375 3.671875 -2.859375 3.484375 C -2.617188 3.304688 -2.5 3.046875 -2.5 2.703125 C -2.5 2.378906 -2.613281 2.117188 -2.84375 1.921875 C -3.070312 1.734375 -3.398438 1.640625 -3.828125 1.640625 L -4.515625 1.640625 L -4.515625 -0.859375 L -3.828125 -0.859375 C -2.503906 -0.859375 -1.5 -0.546875 -0.8125 0.078125 C -0.132812 0.710938 0.203125 1.59375 0.203125 2.71875 Z M 0.203125 2.71875 "/></g></g></g><g fill="#004aad" fill-opacity="1"><g transform="translate(115.847502, 63.848035)"><g><path d="M 12.40625 -10.484375 L 10.859375 -10.484375 L 10.859375 0 L 7.65625 0 L 7.65625 -3.53125 C 7.050781 -2.925781 6.210938 -2.625 5.140625 -2.625 C 4.273438 -2.625 3.539062 -2.828125 2.9375 -3.234375 C 2.332031 -3.640625 1.875 -4.191406 1.5625 -4.890625 C 1.257812 -5.585938 1.109375 -6.378906 1.109375 -7.265625 L 1.109375 -10.484375 L -0.25 -10.484375 L -0.25 -13.15625 L 12.40625 -13.15625 Z M 7.65625 -10.484375 L 4.328125 -10.484375 L 4.328125 -7.265625 C 4.328125 -6.691406 4.460938 -6.222656 4.734375 -5.859375 C 5.003906 -5.492188 5.414062 -5.3125 5.96875 -5.3125 C 6.519531 -5.3125 6.9375 -5.488281 7.21875 -5.84375 C 7.507812 -6.207031 7.65625 -6.65625 7.65625 -7.1875 Z M 7.65625 -10.484375 "/></g></g></g><path fill="#ffd600" d="M 126.082031 9.777344 C 124.019531 12.121094 122.730469 15.09375 122.457031 18.238281 C 121.871094 24.902344 127.777344 30.320312 134.308594 29.101562 C 134.6875 29.03125 134.90625 28.96875 134.90625 28.96875 C 132.265625 28.390625 129.917969 26.703125 128.554688 24.253906 C 129.496094 25.082031 130.835938 25.402344 132.113281 24.984375 C 134.128906 24.328125 135.195312 22.082031 134.390625 20.066406 C 133.710938 18.375 131.867188 17.421875 130.105469 17.859375 C 128.6875 18.210938 127.6875 19.324219 127.386719 20.636719 C 127.0625 17.847656 127.972656 15.09375 129.773438 13.058594 C 130.347656 12.410156 130.523438 11.496094 130.257812 10.667969 C 129.671875 8.851562 127.34375 8.351562 126.082031 9.777344 " fill-opacity="1" fill-rule="nonzero"/><path fill="#dbd5d5" d="M 132.671875 31.300781 C 129.820312 30.046875 126.617188 29.734375 123.558594 30.441406 C 117.085938 31.9375 113.792969 39.269531 116.960938 45.148438 C 117.144531 45.488281 117.269531 45.679688 117.269531 45.679688 C 117.003906 42.96875 117.871094 40.203125 119.765625 38.136719 C 119.273438 39.296875 119.382812 40.679688 120.171875 41.773438 C 121.417969 43.5 123.867188 43.828125 125.519531 42.433594 C 126.910156 41.261719 127.238281 39.199219 126.285156 37.648438 C 125.511719 36.398438 124.152344 35.785156 122.820312 35.902344 C 125.355469 34.730469 128.238281 34.75 130.714844 35.847656 C 131.503906 36.195312 132.421875 36.082031 133.121094 35.570312 C 134.65625 34.449219 134.410156 32.0625 132.671875 31.300781 " fill-opacity="1" fill-rule="nonzero"/><path fill="#008037" d="M 114.378906 44.261719 C 114.683594 41.144531 113.988281 37.976562 112.375 35.265625 C 108.960938 29.53125 101.019531 28.644531 96.445312 33.496094 C 96.179688 33.777344 96.039062 33.957031 96.039062 33.957031 C 98.515625 32.859375 101.398438 32.839844 103.933594 34.011719 C 102.683594 33.902344 101.414062 34.429688 100.625 35.527344 C 99.378906 37.253906 99.828125 39.699219 101.65625 40.851562 C 103.191406 41.820312 105.238281 41.5 106.410156 40.101562 C 107.351562 38.980469 107.511719 37.488281 106.988281 36.246094 C 108.878906 38.3125 109.75 41.078125 109.480469 43.789062 C 109.394531 44.652344 109.785156 45.5 110.484375 46.011719 C 112.019531 47.132812 114.195312 46.160156 114.378906 44.261719 " fill-opacity="1" fill-rule="nonzero"/><g clip-path="url(#id6)"><path fill="#000000" d="M 96.484375 30.75 C 99.523438 30.074219 102.300781 28.433594 104.359375 26.050781 C 108.722656 21.007812 107.105469 13.128906 101.113281 10.246094 C 100.761719 10.078125 100.550781 10 100.550781 10 C 102.351562 12.035156 103.261719 14.785156 102.9375 17.574219 C 102.65625 16.347656 101.761719 15.292969 100.484375 14.875 C 98.46875 14.214844 96.296875 15.402344 95.773438 17.507812 C 95.332031 19.28125 96.269531 21.140625 97.949219 21.832031 C 99.300781 22.386719 100.761719 22.078125 101.769531 21.191406 C 100.402344 23.640625 98.058594 25.332031 95.417969 25.910156 C 94.574219 26.09375 93.894531 26.730469 93.628906 27.558594 C 93.042969 29.375 94.632812 31.160156 96.484375 30.75 " fill-opacity="1" fill-rule="nonzero"/></g><g clip-path="url(#id7)"><path fill="#ff1616" d="M 103.71875 9.4375 C 105.292969 12.136719 107.703125 14.289062 110.589844 15.527344 C 116.703125 18.144531 123.644531 14.164062 124.515625 7.53125 C 124.566406 7.144531 124.574219 6.917969 124.574219 6.917969 C 123.207031 9.269531 120.890625 10.992188 118.152344 11.542969 C 119.226562 10.898438 119.949219 9.714844 119.949219 8.363281 C 119.949219 6.226562 118.15625 4.515625 116.003906 4.664062 C 114.195312 4.789062 112.726562 6.261719 112.59375 8.082031 C 112.488281 9.550781 113.230469 10.851562 114.378906 11.542969 C 111.640625 10.992188 109.320312 9.269531 107.957031 6.917969 C 107.523438 6.167969 106.710938 5.714844 105.847656 5.714844 C 103.953125 5.714844 102.757812 7.789062 103.71875 9.4375 " fill-opacity="1" fill-rule="nonzero"/></g><g clip-path="url(#id8)"><path fill="#004aad" d="M 112.207031 20.359375 L 111.261719 20.226562 L 110.839844 19.386719 C 110.761719 19.234375 110.507812 19.234375 110.429688 19.386719 L 110.007812 20.226562 L 109.0625 20.359375 C 108.976562 20.371094 108.90625 20.433594 108.878906 20.511719 C 108.851562 20.59375 108.875 20.683594 108.9375 20.742188 L 109.621094 21.394531 L 109.457031 22.316406 C 109.445312 22.402344 109.480469 22.484375 109.550781 22.535156 C 109.589844 22.5625 109.636719 22.578125 109.683594 22.578125 C 109.71875 22.578125 109.757812 22.570312 109.789062 22.554688 L 110.632812 22.117188 L 111.476562 22.554688 C 111.554688 22.59375 111.648438 22.585938 111.71875 22.535156 C 111.789062 22.484375 111.824219 22.402344 111.808594 22.316406 L 111.648438 21.394531 L 112.332031 20.742188 C 112.394531 20.683594 112.417969 20.59375 112.390625 20.511719 C 112.363281 20.433594 112.289062 20.371094 112.207031 20.359375 " fill-opacity="1" fill-rule="nonzero"/></g><g clip-path="url(#id9)"><path fill="#004aad" d="M 120.894531 22.617188 L 119.953125 22.484375 L 119.53125 21.644531 C 119.453125 21.492188 119.195312 21.492188 119.121094 21.644531 L 118.699219 22.484375 L 117.753906 22.617188 C 117.667969 22.632812 117.597656 22.691406 117.570312 22.769531 C 117.542969 22.851562 117.566406 22.941406 117.628906 23 L 118.3125 23.652344 L 118.148438 24.574219 C 118.132812 24.65625 118.167969 24.742188 118.238281 24.792969 C 118.3125 24.84375 118.402344 24.851562 118.480469 24.8125 L 119.324219 24.375 L 120.167969 24.8125 C 120.203125 24.828125 120.238281 24.835938 120.273438 24.835938 C 120.324219 24.835938 120.371094 24.820312 120.410156 24.792969 C 120.480469 24.742188 120.515625 24.65625 120.5 24.574219 L 120.339844 23.652344 L 121.023438 23 C 121.085938 22.941406 121.109375 22.851562 121.082031 22.769531 C 121.054688 22.691406 120.980469 22.632812 120.894531 22.617188 " fill-opacity="1" fill-rule="nonzero"/></g><g clip-path="url(#id10)"><path fill="#004aad" d="M 109.570312 26.203125 C 109.605469 26.21875 109.640625 26.226562 109.675781 26.226562 C 109.722656 26.226562 109.773438 26.214844 109.8125 26.183594 C 109.882812 26.136719 109.917969 26.050781 109.902344 25.964844 L 109.789062 25.3125 L 110.273438 24.847656 C 110.335938 24.789062 110.359375 24.699219 110.332031 24.617188 C 110.304688 24.535156 110.234375 24.476562 110.148438 24.464844 L 109.476562 24.371094 L 109.175781 23.773438 C 109.097656 23.621094 108.839844 23.621094 108.765625 23.773438 L 108.464844 24.371094 L 107.792969 24.464844 C 107.707031 24.476562 107.636719 24.535156 107.609375 24.617188 C 107.582031 24.699219 107.605469 24.789062 107.667969 24.847656 L 108.152344 25.3125 L 108.039062 25.964844 C 108.023438 26.050781 108.058594 26.136719 108.128906 26.183594 C 108.199219 26.234375 108.292969 26.242188 108.371094 26.203125 L 108.96875 25.894531 L 109.570312 26.203125 " fill-opacity="1" fill-rule="nonzero"/></g><g clip-path="url(#id11)"><path fill="#004aad" d="M 118.335938 20.25 C 118.308594 20.167969 118.238281 20.109375 118.152344 20.097656 L 117.480469 20 L 117.179688 19.402344 C 117.101562 19.25 116.847656 19.25 116.769531 19.402344 L 116.46875 20 L 115.796875 20.097656 C 115.710938 20.109375 115.640625 20.167969 115.613281 20.25 C 115.585938 20.328125 115.609375 20.417969 115.671875 20.476562 L 116.15625 20.941406 L 116.042969 21.597656 C 116.027344 21.683594 116.0625 21.765625 116.132812 21.816406 C 116.203125 21.867188 116.296875 21.875 116.375 21.832031 L 116.976562 21.523438 L 117.574219 21.832031 C 117.609375 21.851562 117.644531 21.859375 117.683594 21.859375 C 117.730469 21.859375 117.777344 21.84375 117.816406 21.816406 C 117.886719 21.765625 117.921875 21.683594 117.90625 21.597656 L 117.792969 20.941406 L 118.277344 20.476562 C 118.339844 20.417969 118.363281 20.328125 118.335938 20.25 " fill-opacity="1" fill-rule="nonzero"/></g><path fill="#004aad" d="M 112.402344 26.003906 L 111.027344 26.003906 L 111.027344 26.453125 L 112.402344 26.453125 L 112.402344 26.003906 " fill-opacity="1" fill-rule="nonzero"/><path fill="#004aad" d="M 114.230469 26.675781 L 114.6875 26.675781 L 114.6875 27.125 L 114.230469 27.125 Z M 113.558594 27.796875 L 115.359375 27.796875 C 115.746094 27.796875 116.058594 27.492188 116.058594 27.113281 L 116.058594 26.453125 L 112.859375 26.453125 L 112.859375 27.113281 C 112.859375 27.492188 113.171875 27.796875 113.558594 27.796875 " fill-opacity="1" fill-rule="nonzero"/><path fill="#004aad" d="M 116.058594 25.78125 L 116.058594 25.554688 L 114.6875 25.554688 L 114.6875 25.109375 L 116.058594 25.109375 L 116.058594 24.660156 L 114.6875 24.660156 L 114.6875 24.210938 L 116.058594 24.210938 L 116.058594 23.328125 C 116.058594 22.949219 115.746094 22.640625 115.359375 22.640625 L 115.144531 22.640625 L 115.144531 23.3125 L 114.6875 23.3125 L 114.6875 22.640625 L 114.230469 22.640625 L 114.230469 23.3125 L 113.773438 23.3125 L 113.773438 22.640625 L 113.558594 22.640625 C 113.171875 22.640625 112.859375 22.949219 112.859375 23.328125 L 112.859375 24.210938 L 114.230469 24.210938 L 114.230469 24.660156 L 112.859375 24.660156 L 112.859375 25.109375 L 114.230469 25.109375 L 114.230469 25.554688 L 112.859375 25.554688 L 112.859375 26.003906 L 116.058594 26.003906 L 116.058594 25.78125 " fill-opacity="1" fill-rule="nonzero"/><path fill="#004aad" d="M 116.515625 26.003906 L 116.515625 26.453125 L 117.890625 26.453125 L 117.890625 26.003906 L 116.515625 26.003906 " fill-opacity="1" fill-rule="nonzero"/><path fill="#004aad" d="M 114.460938 29.589844 C 112.898438 29.589844 111.613281 28.402344 111.496094 26.902344 L 111.035156 26.902344 C 111.15625 28.652344 112.644531 30.039062 114.460938 30.039062 C 116.273438 30.039062 117.765625 28.652344 117.882812 26.902344 L 117.421875 26.902344 C 117.304688 28.402344 116.023438 29.589844 114.460938 29.589844 " fill-opacity="1" fill-rule="nonzero"/><path fill="#004aad" d="M 114.230469 30.488281 L 114.230469 31.382812 L 114.6875 31.382812 L 114.6875 30.488281 L 114.230469 30.488281 " fill-opacity="1" fill-rule="nonzero"/><g clip-path="url(#id12)"><path fill="#004aad" d="M 116.058594 31.832031 L 112.859375 31.832031 C 112.558594 31.832031 112.304688 32.019531 112.210938 32.28125 L 116.707031 32.28125 C 116.613281 32.019531 116.359375 31.832031 116.058594 31.832031 " fill-opacity="1" fill-rule="nonzero"/></g></svg>